# Blender v2.78 (sub 0) OBJ File: ''
# www.blender.org
mtllib BeerMugCollision.mtl
o mug01.013
v 0.102720 0.010771 -0.025294
v 0.102720 -0.008605 -0.025294
v 0.091995 -0.008605 0.036549
v 0.091995 0.010771 0.036549
v 0.124301 -0.008605 -0.022606
v 0.124301 0.010771 -0.022606
v 0.113984 0.010771 0.039287
v 0.113984 -0.008605 0.039287
vt 0.2235 0.3807
vt 0.2235 0.3807
vt 0.2235 0.3807
vt 0.2235 0.3807
vt 0.2235 0.3807
vt 0.2235 0.3807
vt 0.2235 0.3807
vt 0.2235 0.3807
vn -0.9853 0.0000 -0.1709
vn 0.9864 0.0000 0.1644
vn 0.0000 -1.0000 -0.0000
vn 0.0000 1.0000 -0.0000
vn -0.1236 0.0000 0.9923
vn 0.1236 0.0000 -0.9923
usemtl _defaultMat.002
s 1
f 1/1/1 2/2/1 3/3/1 4/4/1
f 5/5/2 6/6/2 7/7/2 8/8/2
f 2/2/3 5/5/3 8/8/3 3/3/3
f 6/6/4 1/1/4 4/4/4 7/7/4
f 3/3/5 8/8/5 7/7/5 4/4/5
f 2/2/6 1/1/6 6/6/6 5/5/6
o mug01.010
v -0.057188 0.000000 -0.063127
v 0.000000 0.000000 -0.063127
v 0.000000 -0.057188 -0.063127
v -0.041507 -0.041507 -0.063127
v 0.000000 0.000000 -0.055993
v -0.046449 0.000000 -0.053375
v -0.033960 -0.034252 -0.053375
v 0.000000 -0.047038 -0.053375
v 0.057188 0.000000 -0.063127
v 0.041507 -0.041507 -0.063127
v 0.033960 -0.034252 -0.053375
v 0.046449 0.000000 -0.053375
v -0.041507 0.041507 -0.063127
v 0.000000 0.057188 -0.063127
v 0.000000 0.047038 -0.053375
v -0.033960 0.034252 -0.053375
v 0.041507 0.041507 -0.063127
v 0.033960 0.034252 -0.053375
vt 0.2235 0.3807
vt 0.2235 0.3807
vt 0.2235 0.3807
vt 0.2235 0.3807
vt 0.2235 0.3807
vt 0.2235 0.3807
vt 0.2235 0.3807
vt 0.2235 0.3807
vt 0.2235 0.3807
vt 0.2235 0.3807
vt 0.2235 0.3807
vt 0.2235 0.3807
vt 0.2235 0.3807
vt 0.2235 0.3807
vt 0.2235 0.3807
vt 0.2235 0.3807
vt 0.2235 0.3807
vt 0.2235 0.3807
vn 0.0000 0.0000 -1.0000
vn 0.0386 0.0381 0.9985
vn -0.0386 0.0381 0.9985
vn 0.0386 -0.0381 0.9985
vn -0.0386 -0.0381 0.9985
vn -0.6600 0.2454 0.7101
vn 0.6600 0.2454 0.7101
vn 0.6600 -0.2454 0.7101
vn -0.6600 -0.2454 0.7101
vn -0.2531 -0.6711 0.6968
vn 0.2531 -0.6711 0.6968
vn -0.2531 0.6711 0.6968
vn 0.2531 0.6711 0.6968
usemtl _defaultMat.002
s 1
f 9/9/7 10/10/7 11/11/7 12/12/7
f 13/13/8 14/14/8 15/15/8 16/16/8
f 17/17/7 18/18/7 11/11/7 10/10/7
f 13/13/9 16/16/9 19/19/9 20/20/9
f 9/9/7 21/21/7 22/22/7 10/10/7
f 13/13/10 23/23/10 24/24/10 14/14/10
f 17/17/7 10/10/7 22/22/7 25/25/7
f 13/13/11 20/20/11 26/26/11 23/23/11
f 21/21/12 9/9/12 14/14/12 24/24/12
f 25/25/13 26/26/13 20/20/13 17/17/13
f 18/18/14 17/17/14 20/20/14 19/19/14
f 12/12/15 15/15/15 14/14/15 9/9/15
f 11/11/16 16/16/16 15/15/16 12/12/16
f 11/11/17 18/18/17 19/19/17 16/16/17
f 22/22/18 21/21/18 24/24/18 23/23/18
f 22/22/19 23/23/19 26/26/19 25/25/19
o mug01.003
v 0.041507 0.041507 -0.063127
v 0.035187 0.035077 0.054433
v 0.045517 0.000000 0.054433
v 0.057188 0.000000 -0.063127
v 0.046449 0.000000 -0.053375
v 0.034672 0.000000 0.054433
v 0.027277 0.027349 0.054433
v 0.033960 0.034252 -0.053375
vt 0.2235 0.3807
vt 0.2235 0.3807
vt 0.2235 0.3807
vt 0.2235 0.3807
vt 0.2235 0.3807
vt 0.2235 0.3807
vt 0.2235 0.3807
vt 0.2235 0.3807
vn 0.9438 0.3205 0.0810
vn -0.9477 -0.3059 -0.0909
vn 0.0000 0.0000 1.0000
vn 0.0000 -1.0000 0.0000
vn -0.6600 -0.2454 -0.7101
vn -0.6952 0.7188 0.0024
usemtl _defaultMat.002
s 1
f 27/27/20 28/28/20 29/29/20 30/30/20
f 31/31/21 32/32/21 33/33/21 34/34/21
f 28/28/22 33/33/22 32/32/22 29/29/22
f 30/30/23 29/29/23 32/32/23 31/31/23
f 27/27/24 30/30/24 31/31/24 34/34/24
f 34/34/25 33/33/25 28/28/25 27/27/25
o mug01.008
v -0.033960 -0.034252 -0.053375
v -0.027277 -0.027349 0.054433
v 0.000000 -0.034920 0.054433
v 0.000000 -0.047038 -0.053375
v -0.035187 -0.035077 0.054433
v 0.000000 -0.045407 0.054433
v 0.000000 -0.057188 -0.063127
v -0.041507 -0.041507 -0.063127
vt 0.2235 0.3807
vt 0.2235 0.3807
vt 0.2235 0.3807
vt 0.2235 0.3807
vt 0.2235 0.3807
vt 0.2235 0.3807
vt 0.2235 0.3807
vt 0.2235 0.3807
vn 0.3141 0.9448 -0.0931
vn -0.0000 0.0000 1.0000
vn -0.3201 -0.9439 0.0817
vn 0.2531 0.6711 -0.6968
vn -0.6952 0.7188 -0.0024
vn 1.0000 0.0000 0.0000
usemtl _defaultMat.002
s 1
f 35/35/26 36/36/26 37/37/26 38/38/26
f 37/37/27 36/36/27 39/39/27 40/40/27
f 41/41/28 40/40/28 39/39/28 42/42/28
f 41/41/29 42/42/29 35/35/29 38/38/29
f 36/36/30 35/35/30 42/42/30 39/39/30
f 38/38/31 37/37/31 40/40/31 41/41/31
o mug01.006
v -0.057188 0.000000 -0.063127
v -0.045517 0.000000 0.054433
v -0.035187 0.035077 0.054433
v -0.041507 0.041507 -0.063127
v -0.027277 0.027349 0.054433
v -0.034672 0.000000 0.054433
v -0.046449 0.000000 -0.053375
v -0.033960 0.034252 -0.053375
vt 0.2235 0.3807
vt 0.2235 0.3807
vt 0.2235 0.3807
vt 0.2235 0.3807
vt 0.2235 0.3807
vt 0.2235 0.3807
vt 0.2235 0.3807
vt 0.2235 0.3807
vn -0.9438 0.3205 0.0810
vn 0.9477 -0.3059 -0.0909
vn 0.0000 0.0000 1.0000
vn 0.0000 -1.0000 0.0000
vn 0.6952 0.7188 0.0024
vn 0.6600 -0.2454 -0.7101
usemtl _defaultMat.002
s 1
f 43/43/32 44/44/32 45/45/32 46/46/32
f 47/47/33 48/48/33 49/49/33 50/50/33
f 47/47/34 45/45/34 44/44/34 48/48/34
f 44/44/35 43/43/35 49/49/35 48/48/35
f 46/46/36 45/45/36 47/47/36 50/50/36
f 46/46/37 50/50/37 49/49/37 43/43/37
o mug01.001
v 0.033960 -0.034252 -0.053375
v 0.027277 -0.027349 0.054433
v 0.034672 0.000000 0.054433
v 0.046449 0.000000 -0.053375
v 0.035285 -0.034742 0.054433
v 0.045517 0.000000 0.054433
v 0.057188 0.000000 -0.063127
v 0.041507 -0.041507 -0.063127
vt 0.2235 0.3807
vt 0.2235 0.3807
vt 0.2235 0.3807
vt 0.2235 0.3807
vt 0.2235 0.3807
vt 0.2235 0.3807
vt 0.0000 0.0000
vt 0.0000 0.0000
vn -0.9477 0.3059 -0.0909
vn 0.0000 0.0000 1.0000
vn 0.9437 -0.3207 0.0810
vn 0.0000 1.0000 0.0000
vn -0.6839 -0.7296 0.0051
vn -0.6600 0.2454 -0.7101
usemtl _defaultMat.002
s 1
f 51/51/38 52/52/38 53/53/38 54/54/38
f 52/52/39 55/55/39 56/56/39 53/53/39
f 57/57/40 56/56/40 55/55/40 58/58/40
f 57/57/41 54/54/41 53/53/41 56/56/41
f 52/52/42 51/51/42 58/58/42 55/55/42
f 58/58/43 51/51/43 54/54/43 57/57/43
o mug01.009
v 0.041507 -0.041507 -0.063127
v 0.035187 -0.035077 0.054433
v 0.000000 -0.045407 0.054433
v 0.000000 -0.057188 -0.063127
v 0.000000 -0.034920 0.054433
v 0.027277 -0.027349 0.054433
v 0.033960 -0.034252 -0.053375
v 0.000000 -0.047038 -0.053375
vt 0.2235 0.3807
vt 0.2235 0.3807
vt 0.2235 0.3807
vt 0.2235 0.3807
vt 0.2235 0.3807
vt 0.2235 0.3807
vt 0.2235 0.3807
vt 0.2235 0.3807
vn 0.3201 -0.9439 0.0817
vn -0.3141 0.9448 -0.0931
vn 0.6952 0.7188 -0.0024
vn -1.0000 0.0000 0.0000
vn -0.2531 0.6711 -0.6968
vn -0.0000 0.0000 1.0000
usemtl _defaultMat.002
s 1
f 59/59/44 60/60/44 61/61/44 62/62/44
f 63/63/45 64/64/45 65/65/45 66/66/45
f 64/64/46 60/60/46 59/59/46 65/65/46
f 66/66/47 62/62/47 61/61/47 63/63/47
f 62/62/48 66/66/48 65/65/48 59/59/48
f 64/64/49 63/63/49 61/61/49 60/60/49
o mug01.012
v 0.105517 -0.008605 -0.041432
v 0.105517 0.010771 -0.041432
v 0.126690 0.010771 -0.038795
v 0.126690 -0.008605 -0.038795
v 0.124301 0.010771 -0.022606
v 0.124301 -0.008605 -0.022606
v 0.102720 -0.008605 -0.025294
v 0.102720 0.010771 -0.025294
v 0.055543 0.010772 -0.050002
v 0.055543 -0.008604 -0.050002
v 0.055545 -0.008604 -0.033690
v 0.055545 0.010772 -0.033690
vt 0.4020 0.1494
vt 0.4020 0.1494
vt 0.4020 0.1494
vt 0.4020 0.1494
vt 0.4020 0.1494
vt 0.4020 0.1494
vt 0.4020 0.1494
vt 0.4020 0.1494
vt 0.4020 0.1494
vt 0.4020 0.1494
vt 0.4020 0.1494
vt 0.4020 0.1494
vn 0.1236 0.0000 -0.9923
vn 0.9893 0.0000 0.1460
vn -0.0000 -1.0000 -0.0000
vn 0.0000 1.0000 0.0000
vn -0.1236 0.0000 0.9923
vn -1.0000 0.0000 0.0001
vn 0.1690 0.0000 -0.9856
vn -0.1752 0.0000 0.9845
usemtl _defaultMat.002
s 1
f 67/67/50 68/68/50 69/69/50 70/70/50
f 70/70/51 69/69/51 71/71/51 72/72/51
f 67/67/52 70/70/52 72/72/52 73/73/52
f 69/69/53 68/68/53 74/74/53 71/71/53
f 73/73/54 72/72/54 71/71/54 74/74/54
f 75/75/55 76/76/55 77/77/55 78/78/55
f 68/68/56 67/67/56 76/76/56 75/75/56
f 67/67/52 73/73/52 77/77/52 76/76/52
f 73/73/57 74/74/57 78/78/57 77/77/57
f 74/74/53 68/68/53 75/75/53 78/78/53
o mug01.007
v -0.041507 -0.041507 -0.063127
v -0.035187 -0.035077 0.054433
v -0.045517 0.000000 0.054433
v -0.057188 0.000000 -0.063127
v -0.046449 0.000000 -0.053375
v -0.034672 0.000000 0.054433
v -0.027277 -0.027349 0.054433
v -0.033960 -0.034252 -0.053375
vt 0.2235 0.3807
vt 0.2235 0.3807
vt 0.2235 0.3807
vt 0.2235 0.3807
vt 0.2235 0.3807
vt 0.2235 0.3807
vt 0.2235 0.3807
vt 0.2235 0.3807
vn -0.9438 -0.3205 0.0810
vn 0.9477 0.3059 -0.0909
vn 0.0000 0.0000 1.0000
vn 0.6952 -0.7188 0.0024
vn 0.0000 1.0000 0.0000
vn 0.6600 0.2454 -0.7101
usemtl _defaultMat.002
s 1
f 79/79/58 80/80/58 81/81/58 82/82/58
f 83/83/59 84/84/59 85/85/59 86/86/59
f 80/80/60 85/85/60 84/84/60 81/81/60
f 85/85/61 80/80/61 79/79/61 86/86/61
f 81/81/62 84/84/62 83/83/62 82/82/62
f 79/79/63 82/82/63 83/83/63 86/86/63
o mug01.004
v 0.000000 0.057188 -0.063127
v 0.000000 0.045407 0.054433
v 0.035187 0.035077 0.054433
v 0.041507 0.041507 -0.063127
v 0.033960 0.034252 -0.053375
v 0.027277 0.027349 0.054433
v 0.000000 0.034920 0.054433
v 0.000000 0.047038 -0.053375
vt 0.2235 0.3807
vt 0.2235 0.3807
vt 0.2235 0.3807
vt 0.2235 0.3807
vt 0.2235 0.3807
vt 0.2235 0.3807
vt 0.2235 0.3807
vt 0.2235 0.3807
vn 0.3201 0.9439 0.0817
vn -0.3141 -0.9448 -0.0931
vn 0.0000 0.0000 1.0000
vn 0.6952 -0.7188 -0.0024
vn -1.0000 0.0000 0.0000
vn -0.2531 -0.6711 -0.6968
usemtl _defaultMat.002
s 1
f 87/87/64 88/88/64 89/89/64 90/90/64
f 91/91/65 92/92/65 93/93/65 94/94/65
f 93/93/66 92/92/66 89/89/66 88/88/66
f 91/91/67 90/90/67 89/89/67 92/92/67
f 94/94/68 93/93/68 88/88/68 87/87/68
f 87/87/69 90/90/69 91/91/69 94/94/69
o mug01.005
v -0.035187 0.035077 0.054433
v 0.000000 0.045407 0.054433
v 0.000000 0.057188 -0.063127
v -0.041507 0.041507 -0.063127
v -0.027277 0.027349 0.054433
v -0.033960 0.034252 -0.053375
v 0.000000 0.047038 -0.053375
v 0.000000 0.034920 0.054433
vt 0.2235 0.3807
vt 0.2235 0.3807
vt 0.2235 0.3807
vt 0.2235 0.3807
vt 0.2235 0.3807
vt 0.2235 0.3807
vt 0.2235 0.3807
vt 0.2235 0.3807
vn -0.3201 0.9439 0.0817
vn 0.3141 -0.9448 -0.0931
vn -0.0000 0.0000 1.0000
vn -0.6952 -0.7188 -0.0024
vn 1.0000 0.0000 0.0000
vn 0.2531 -0.6711 -0.6968
usemtl _defaultMat.002
s 1
f 95/95/70 96/96/70 97/97/70 98/98/70
f 99/99/71 100/100/71 101/101/71 102/102/71
f 102/102/72 96/96/72 95/95/72 99/99/72
f 98/98/73 100/100/73 99/99/73 95/95/73
f 101/101/74 97/97/74 96/96/74 102/102/74
f 97/97/75 101/101/75 100/100/75 98/98/75
o mug01.011
v 0.113984 0.010771 0.039287
v 0.091995 0.010771 0.036549
v 0.089197 0.010771 0.052687
v 0.111594 0.010771 0.055477
v 0.091995 -0.008605 0.036549
v 0.113984 -0.008605 0.039287
v 0.111594 -0.008605 0.055477
v 0.089197 -0.008605 0.052687
v 0.047785 0.010772 0.045128
v 0.047785 -0.008604 0.045128
v 0.047784 0.010772 0.028816
v 0.047784 -0.008604 0.028816
vt 0.4020 0.1494
vt 0.4020 0.1494
vt 0.4020 0.1494
vt 0.4020 0.1494
vt 0.4020 0.1494
vt 0.4020 0.1494
vt 0.4020 0.1494
vt 0.4020 0.1494
vt 0.4020 0.1494
vt 0.4020 0.1494
vt 0.4020 0.1494
vt 0.4020 0.1494
vn 0.0000 1.0000 0.0000
vn -0.0000 -1.0000 -0.0000
vn 0.9893 0.0000 0.1460
vn -0.1796 0.0000 0.9837
vn -0.1236 0.0000 0.9923
vn -1.0000 0.0000 0.0001
vn 0.1236 0.0000 -0.9923
vn 0.1723 0.0000 -0.9850
usemtl _defaultMat.002
s 1
f 103/103/76 104/104/76 105/105/76 106/106/76
f 107/107/77 108/108/77 109/109/77 110/110/77
f 108/108/78 103/103/78 106/106/78 109/109/78
f 110/110/79 105/105/79 111/111/79 112/112/79
f 110/110/80 109/109/80 106/106/80 105/105/80
f 105/105/76 104/104/76 113/113/76 111/111/76
f 113/113/81 114/114/81 112/112/81 111/111/81
f 107/107/82 104/104/82 103/103/82 108/108/82
f 107/107/77 110/110/77 112/112/77 114/114/77
f 104/104/83 107/107/83 114/114/83 113/113/83
