# Blender v2.78 (sub 0) OBJ File: 'toprocess3d.blend'
# www.blender.org
mtllib leg.mtl
o table.005_table.006
v 0.024252 0.025787 0.207509
v 0.024252 -0.025787 0.207509
v -0.024252 -0.025787 0.207509
v 0.024252 0.025787 -0.207510
v 0.024252 -0.025787 -0.207510
v -0.024252 0.025787 0.207514
v -0.024252 -0.025787 -0.207510
v -0.024252 0.025787 -0.207510
vt 0.0000 0.0000
vt 0.0000 10.9540
vt -2.0304 10.9540
vt -2.0304 0.0000
vt 2.0304 0.0000
vt 2.0304 10.9540
vt -0.0000 12.8635
vt -0.0000 0.0000
vt -31.2199 0.0000
vt -31.2199 2.0304
vt -33.1295 2.0304
vt -33.1295 0.0000
vt 31.2199 0.0000
vt 33.1295 0.0000
vt 33.1295 12.8635
vt 31.2199 10.9540
vn 1.0000 0.0000 0.0000
vn 0.7071 -0.7071 0.0000
vn -1.0000 0.0000 0.0000
vn -0.7071 -0.0001 0.7071
vn -0.5773 0.5773 0.5774
vn 0.0000 0.0000 -1.0000
vn -0.0000 1.0000 0.0000
vn 0.0001 0.7071 0.7071
vn 0.0000 -1.0000 0.0000
vn 0.0001 -0.0001 1.0000
usemtl wood.015
s 1
f 4/1/1 1/2/1 2/3/2
f 2/3/2 5/4/2 4/1/1
f 7/5/3 3/6/4 6/7/5
f 6/7/5 8/8/3 7/5/3
f 4/9/6 5/10/6 7/11/6
f 7/11/6 8/12/6 4/9/6
f 4/13/7 8/14/7 6/15/5
f 6/15/5 1/16/8 4/13/7
f 5/10/2 2/3/2 7/11/9
f 3/6/9 7/11/9 2/3/2
f 3/6/4 2/3/10 6/7/5
f 6/7/5 2/3/10 1/2/8
