# Blender v2.78 (sub 0) OBJ File: 'toprocess3d.blend'
# www.blender.org
mtllib top.mtl
o table.005
v 0.420740 -0.223687 -0.024252
v -0.420740 -0.223687 -0.024252
v -0.420740 0.223687 -0.024252
v 0.420740 0.223687 -0.024252
v -0.420744 -0.223687 0.024252
v -0.420744 0.223687 0.024252
v 0.420744 0.223687 0.024252
v 0.420744 -0.223687 0.024252
vt 33.1295 12.8635
vt 31.2199 10.9540
vt 33.1295 17.6131
vt -31.2199 10.9540
vt -1.9096 10.9540
vt 0.0000 0.0000
vt -0.0000 17.6131
vt 1.9096 10.9540
vt 33.1295 0.0000
vt 0.0000 12.8635
vt -0.0000 12.8635
vt -33.1295 12.8635
vn -0.7071 0.7071 -0.0001
vn -0.5773 0.5774 -0.5774
vn -0.7071 -0.7071 -0.0001
vn -0.5773 -0.5774 -0.5774
vn 0.5773 -0.5774 -0.5774
vn 0.7071 0.7071 -0.0001
vn 0.7071 -0.7071 -0.0001
vn 0.5773 0.5774 -0.5774
vn 0.0000 -0.0000 1.0000
usemtl wood.015
s 1
f 6/1/1 3/2/2 5/3/3
f 2/4/4 3/2/2 1/5/5
f 5/3/3 3/2/2 2/4/4
f 7/6/6 8/7/7 1/5/5
f 1/5/5 4/8/8 7/6/6
f 5/3/9 8/7/9 7/6/9
f 7/6/9 6/9/9 5/3/9
f 3/2/2 6/1/1 7/10/6
f 4/8/8 3/2/2 7/10/6
f 8/11/7 5/12/3 1/5/5
f 2/4/4 1/5/5 5/12/3
f 4/8/8 1/5/5 3/2/2
